<mxfile host="app.diagrams.net" modified="2024-04-22T04:58:36.120Z" agent="Mozilla/5.0 (Windows NT 10.0; Win64; x64) AppleWebKit/537.36 (KHTML, like Gecko) Chrome/124.0.0.0 Safari/537.36" etag="mUGUcdDZOZ1DgmBC_Qms" version="24.2.2" type="github">
  <diagram name="Página-1" id="I6RCl1Hfmlv7WQNAjJQK">
    <mxGraphModel dx="1290" dy="596" grid="1" gridSize="10" guides="1" tooltips="1" connect="1" arrows="1" fold="1" page="1" pageScale="1" pageWidth="827" pageHeight="1169" math="0" shadow="0">
      <root>
        <mxCell id="0" />
        <mxCell id="1" parent="0" />
        <mxCell id="HPC2uOC-RO67EFArFsDC-1" value="" style="rounded=0;whiteSpace=wrap;html=1;fillColor=#B0B0B0;dashed=1;dashPattern=12 12;movable=1;resizable=1;rotatable=1;deletable=1;editable=1;locked=0;connectable=1;opacity=30;" vertex="1" parent="1">
          <mxGeometry x="151.7" y="224.7" width="150" height="277.3" as="geometry" />
        </mxCell>
        <mxCell id="HPC2uOC-RO67EFArFsDC-5" style="edgeStyle=orthogonalEdgeStyle;rounded=0;orthogonalLoop=1;jettySize=auto;html=1;entryX=0;entryY=0.5;entryDx=0;entryDy=0;" edge="1" parent="1" source="HPC2uOC-RO67EFArFsDC-6" target="HPC2uOC-RO67EFArFsDC-1">
          <mxGeometry relative="1" as="geometry" />
        </mxCell>
        <mxCell id="HPC2uOC-RO67EFArFsDC-6" value="" style="rounded=0;whiteSpace=wrap;html=1;fillColor=none;dashed=1;dashPattern=8 8;" vertex="1" parent="1">
          <mxGeometry x="20" y="204.7" width="100" height="319" as="geometry" />
        </mxCell>
        <mxCell id="HPC2uOC-RO67EFArFsDC-11" value="" style="edgeStyle=orthogonalEdgeStyle;rounded=0;orthogonalLoop=1;jettySize=auto;html=1;" edge="1" parent="1">
          <mxGeometry relative="1" as="geometry">
            <mxPoint x="482" y="370" as="sourcePoint" />
            <mxPoint x="570" y="360" as="targetPoint" />
            <Array as="points">
              <mxPoint x="482" y="370" />
              <mxPoint x="482" y="360" />
            </Array>
          </mxGeometry>
        </mxCell>
        <mxCell id="HPC2uOC-RO67EFArFsDC-13" style="edgeStyle=orthogonalEdgeStyle;rounded=0;orthogonalLoop=1;jettySize=auto;html=1;entryX=0.036;entryY=0.609;entryDx=0;entryDy=0;entryPerimeter=0;" edge="1" parent="1" source="HPC2uOC-RO67EFArFsDC-1" target="HPC2uOC-RO67EFArFsDC-50">
          <mxGeometry relative="1" as="geometry">
            <mxPoint x="370" y="350" as="targetPoint" />
          </mxGeometry>
        </mxCell>
        <mxCell id="HPC2uOC-RO67EFArFsDC-14" value="&lt;b&gt;FinDoo&lt;/b&gt;" style="html=1;dropTarget=0;whiteSpace=wrap;" vertex="1" parent="1">
          <mxGeometry x="570" y="335" width="110" height="48" as="geometry" />
        </mxCell>
        <mxCell id="HPC2uOC-RO67EFArFsDC-15" value="" style="shape=module;jettyWidth=8;jettyHeight=4;" vertex="1" parent="HPC2uOC-RO67EFArFsDC-14">
          <mxGeometry x="1" width="20" height="20" relative="1" as="geometry">
            <mxPoint x="-27" y="7" as="offset" />
          </mxGeometry>
        </mxCell>
        <mxCell id="HPC2uOC-RO67EFArFsDC-16" value="Database" style="shape=module;align=left;spacingLeft=20;align=center;verticalAlign=top;whiteSpace=wrap;html=1;" vertex="1" parent="1">
          <mxGeometry x="806" y="133" width="100" height="50" as="geometry" />
        </mxCell>
        <mxCell id="HPC2uOC-RO67EFArFsDC-17" value="Api Gateway" style="shape=module;align=left;spacingLeft=20;align=center;verticalAlign=top;whiteSpace=wrap;html=1;" vertex="1" parent="1">
          <mxGeometry x="806" y="202" width="100" height="50" as="geometry" />
        </mxCell>
        <mxCell id="HPC2uOC-RO67EFArFsDC-18" value="Payment Gateway" style="shape=module;align=left;spacingLeft=20;align=center;verticalAlign=top;whiteSpace=wrap;html=1;" vertex="1" parent="1">
          <mxGeometry x="806" y="268" width="100" height="50" as="geometry" />
        </mxCell>
        <mxCell id="HPC2uOC-RO67EFArFsDC-19" value="Mensajería&lt;div&gt;&lt;br&gt;&lt;/div&gt;" style="shape=module;align=left;spacingLeft=20;align=center;verticalAlign=top;whiteSpace=wrap;html=1;" vertex="1" parent="1">
          <mxGeometry x="806" y="331" width="100" height="50" as="geometry" />
        </mxCell>
        <mxCell id="HPC2uOC-RO67EFArFsDC-20" value="Gis geolocalization&lt;div&gt;&lt;br&gt;&lt;/div&gt;" style="shape=module;align=left;spacingLeft=20;align=center;verticalAlign=top;whiteSpace=wrap;html=1;" vertex="1" parent="1">
          <mxGeometry x="806" y="396" width="100" height="50" as="geometry" />
        </mxCell>
        <mxCell id="HPC2uOC-RO67EFArFsDC-22" value="Load Balance" style="shape=module;align=left;spacingLeft=20;align=center;verticalAlign=top;whiteSpace=wrap;html=1;" vertex="1" parent="1">
          <mxGeometry x="806" y="470" width="100" height="50" as="geometry" />
        </mxCell>
        <mxCell id="HPC2uOC-RO67EFArFsDC-23" value="Motor de busqueda&lt;div&gt;&lt;br&gt;&lt;/div&gt;" style="shape=module;align=left;spacingLeft=20;align=center;verticalAlign=top;whiteSpace=wrap;html=1;" vertex="1" parent="1">
          <mxGeometry x="806" y="535" width="100" height="50" as="geometry" />
        </mxCell>
        <mxCell id="HPC2uOC-RO67EFArFsDC-24" style="edgeStyle=orthogonalEdgeStyle;rounded=0;orthogonalLoop=1;jettySize=auto;html=1;entryX=0;entryY=0;entryDx=0;entryDy=15;entryPerimeter=0;dashed=1;" edge="1" parent="1" source="HPC2uOC-RO67EFArFsDC-14" target="HPC2uOC-RO67EFArFsDC-16">
          <mxGeometry relative="1" as="geometry" />
        </mxCell>
        <mxCell id="HPC2uOC-RO67EFArFsDC-25" style="edgeStyle=orthogonalEdgeStyle;rounded=0;orthogonalLoop=1;jettySize=auto;html=1;entryX=0;entryY=0;entryDx=0;entryDy=15;entryPerimeter=0;dashed=1;" edge="1" parent="1" source="HPC2uOC-RO67EFArFsDC-14" target="HPC2uOC-RO67EFArFsDC-17">
          <mxGeometry relative="1" as="geometry" />
        </mxCell>
        <mxCell id="HPC2uOC-RO67EFArFsDC-26" style="edgeStyle=orthogonalEdgeStyle;rounded=0;orthogonalLoop=1;jettySize=auto;html=1;exitX=1;exitY=0.5;exitDx=0;exitDy=0;entryX=0;entryY=0;entryDx=0;entryDy=15;entryPerimeter=0;dashed=1;" edge="1" parent="1" source="HPC2uOC-RO67EFArFsDC-14" target="HPC2uOC-RO67EFArFsDC-18">
          <mxGeometry relative="1" as="geometry" />
        </mxCell>
        <mxCell id="HPC2uOC-RO67EFArFsDC-27" style="edgeStyle=orthogonalEdgeStyle;rounded=0;orthogonalLoop=1;jettySize=auto;html=1;entryX=0;entryY=0;entryDx=0;entryDy=15;entryPerimeter=0;dashed=1;" edge="1" parent="1" source="HPC2uOC-RO67EFArFsDC-14" target="HPC2uOC-RO67EFArFsDC-19">
          <mxGeometry relative="1" as="geometry" />
        </mxCell>
        <mxCell id="HPC2uOC-RO67EFArFsDC-28" style="edgeStyle=orthogonalEdgeStyle;rounded=0;orthogonalLoop=1;jettySize=auto;html=1;exitX=1;exitY=0.5;exitDx=0;exitDy=0;entryX=0;entryY=0;entryDx=0;entryDy=15;entryPerimeter=0;dashed=1;" edge="1" parent="1" source="HPC2uOC-RO67EFArFsDC-14" target="HPC2uOC-RO67EFArFsDC-20">
          <mxGeometry relative="1" as="geometry" />
        </mxCell>
        <mxCell id="HPC2uOC-RO67EFArFsDC-30" style="edgeStyle=orthogonalEdgeStyle;rounded=0;orthogonalLoop=1;jettySize=auto;html=1;exitX=1;exitY=0.5;exitDx=0;exitDy=0;entryX=0;entryY=0;entryDx=0;entryDy=15;entryPerimeter=0;dashed=1;" edge="1" parent="1" source="HPC2uOC-RO67EFArFsDC-14" target="HPC2uOC-RO67EFArFsDC-22">
          <mxGeometry relative="1" as="geometry" />
        </mxCell>
        <mxCell id="HPC2uOC-RO67EFArFsDC-31" style="edgeStyle=orthogonalEdgeStyle;rounded=0;orthogonalLoop=1;jettySize=auto;html=1;exitX=1;exitY=0.5;exitDx=0;exitDy=0;entryX=0;entryY=0;entryDx=0;entryDy=15;entryPerimeter=0;dashed=1;" edge="1" parent="1" source="HPC2uOC-RO67EFArFsDC-14" target="HPC2uOC-RO67EFArFsDC-23">
          <mxGeometry relative="1" as="geometry" />
        </mxCell>
        <mxCell id="HPC2uOC-RO67EFArFsDC-32" value="{Use}" style="text;html=1;align=center;verticalAlign=middle;whiteSpace=wrap;rounded=0;" vertex="1" parent="1">
          <mxGeometry x="680" y="363" width="60" height="30" as="geometry" />
        </mxCell>
        <mxCell id="HPC2uOC-RO67EFArFsDC-35" value="Calendar&amp;nbsp;&lt;div&gt;&lt;br&gt;&lt;/div&gt;" style="shape=module;align=left;spacingLeft=20;align=center;verticalAlign=top;whiteSpace=wrap;html=1;" vertex="1" parent="1">
          <mxGeometry x="806" y="600" width="100" height="50" as="geometry" />
        </mxCell>
        <mxCell id="HPC2uOC-RO67EFArFsDC-36" style="edgeStyle=orthogonalEdgeStyle;rounded=0;orthogonalLoop=1;jettySize=auto;html=1;entryX=0;entryY=0;entryDx=0;entryDy=15;entryPerimeter=0;dashed=1;" edge="1" parent="1" source="HPC2uOC-RO67EFArFsDC-14" target="HPC2uOC-RO67EFArFsDC-35">
          <mxGeometry relative="1" as="geometry">
            <Array as="points">
              <mxPoint x="743" y="359" />
              <mxPoint x="743" y="615" />
            </Array>
          </mxGeometry>
        </mxCell>
        <mxCell id="HPC2uOC-RO67EFArFsDC-38" value="Client Devices" style="text;html=1;align=center;verticalAlign=middle;whiteSpace=wrap;rounded=0;" vertex="1" parent="1">
          <mxGeometry x="200.26" y="153" width="60" height="30" as="geometry" />
        </mxCell>
        <mxCell id="HPC2uOC-RO67EFArFsDC-39" value="" style="image;points=[];aspect=fixed;html=1;align=center;shadow=0;dashed=0;image=img/lib/allied_telesis/computer_and_terminals/Personal_Computer.svg;" vertex="1" parent="1">
          <mxGeometry x="203.89999999999998" y="218.2" width="45.6" height="61.800000000000004" as="geometry" />
        </mxCell>
        <mxCell id="HPC2uOC-RO67EFArFsDC-40" value="" style="image;points=[];aspect=fixed;html=1;align=center;shadow=0;dashed=0;image=img/lib/allied_telesis/computer_and_terminals/Laptop.svg;" vertex="1" parent="1">
          <mxGeometry x="200.26" y="289.4" width="45.94" height="46.6" as="geometry" />
        </mxCell>
        <mxCell id="HPC2uOC-RO67EFArFsDC-41" value="" style="verticalLabelPosition=bottom;verticalAlign=top;html=1;shadow=0;dashed=0;strokeWidth=1;shape=mxgraph.ios.iPhone;bgStyle=bgGreen;fillColor=#aaaaaa;sketch=0;" vertex="1" parent="1">
          <mxGeometry x="207.2" y="346" width="32.8" height="54" as="geometry" />
        </mxCell>
        <mxCell id="HPC2uOC-RO67EFArFsDC-42" value="" style="sketch=0;pointerEvents=1;shadow=0;dashed=0;html=1;strokeColor=none;fillColor=#505050;labelPosition=center;verticalLabelPosition=bottom;verticalAlign=top;outlineConnect=0;align=center;shape=mxgraph.office.devices.tablet_ipad;" vertex="1" parent="1">
          <mxGeometry x="204.1" y="422" width="39" height="52" as="geometry" />
        </mxCell>
        <mxCell id="HPC2uOC-RO67EFArFsDC-43" value="Dueño app&lt;div&gt;&lt;br&gt;&lt;/div&gt;" style="shape=umlActor;verticalLabelPosition=bottom;verticalAlign=top;html=1;outlineConnect=0;" vertex="1" parent="1">
          <mxGeometry x="55" y="229.4" width="30" height="60" as="geometry" />
        </mxCell>
        <mxCell id="HPC2uOC-RO67EFArFsDC-44" value="Dueño negocio&lt;div&gt;&lt;br&gt;&lt;/div&gt;" style="shape=umlActor;verticalLabelPosition=bottom;verticalAlign=top;html=1;outlineConnect=0;" vertex="1" parent="1">
          <mxGeometry x="55" y="430" width="30" height="60" as="geometry" />
        </mxCell>
        <mxCell id="HPC2uOC-RO67EFArFsDC-45" value="Cliente aplicación&amp;nbsp;&lt;div&gt;&lt;br&gt;&lt;/div&gt;" style="shape=umlActor;verticalLabelPosition=bottom;verticalAlign=top;html=1;outlineConnect=0;" vertex="1" parent="1">
          <mxGeometry x="55" y="336.6" width="30" height="59.4" as="geometry" />
        </mxCell>
        <mxCell id="HPC2uOC-RO67EFArFsDC-50" value="" style="html=1;verticalLabelPosition=bottom;align=center;labelBackgroundColor=#ffffff;verticalAlign=top;strokeWidth=2;strokeColor=#0080F0;shadow=0;dashed=0;shape=mxgraph.ios7.icons.cloud;" vertex="1" parent="1">
          <mxGeometry x="370" y="316.35" width="110" height="76.65" as="geometry" />
        </mxCell>
        <mxCell id="HPC2uOC-RO67EFArFsDC-52" value="Internet" style="text;html=1;align=center;verticalAlign=middle;whiteSpace=wrap;rounded=0;" vertex="1" parent="1">
          <mxGeometry x="395" y="349.20000000000005" width="60" height="30" as="geometry" />
        </mxCell>
        <mxCell id="HPC2uOC-RO67EFArFsDC-53" value="HTTPS" style="text;html=1;align=center;verticalAlign=middle;whiteSpace=wrap;rounded=0;" vertex="1" parent="1">
          <mxGeometry x="490" y="330" width="60" height="30" as="geometry" />
        </mxCell>
      </root>
    </mxGraphModel>
  </diagram>
</mxfile>
